<svg width="39" height="39" fill="none" xmlns="http://www.w3.org/2000/svg"><path d="M19.5 0h-1.759v9.273h3.517v-5.66A15.946 15.946 0 0 1 35.48 19.5c0 8.814-7.17 15.984-15.981 15.984-8.812 0-15.981-7.17-15.981-15.984 0-3.607 1.172-7.01 3.388-9.842l.62-.79L4.757 6.7l-.619.79A19.3 19.3 0 0 0 0 19.5C0 30.252 8.747 39 19.5 39 30.252 39 39 30.253 39 19.5S30.252 0 19.5 0Z" fill="#000"/><path d="M16.697 22.488a3.687 3.687 0 0 0 2.858 1.337c1.902 0 3.528-1.486 3.699-3.382a3.7 3.7 0 0 0-.848-2.717 3.694 3.694 0 0 0-2.52-1.324 3.546 3.546 0 0 0-1.005.057L8.14 7.357l7.89 11.595c-.1.289-.16.558-.184.82-.09.987.213 1.953.85 2.716Z" fill="#000"/></svg>