<svg width="38" height="38" fill="none" xmlns="http://www.w3.org/2000/svg"><path d="M32.894 23.171a.632.632 0 0 0-.867.227l-7.262 12.385c-.525.908-1.688 1.221-2.568.713l-1.415-.916a.633.633 0 1 0-.69 1.063l1.443.933a3.166 3.166 0 0 0 4.324-1.156l7.26-12.382a.633.633 0 0 0-.225-.867ZM34.81 0H24.674c-1.96 0-3.42.624-4.882 2.086a.633.633 0 1 0 .895.896c1.235-1.234 2.353-1.715 3.987-1.715H34.81c1.048 0 1.901.853 1.901 1.9v10.137c0 1.635-.48 2.753-1.715 3.987L16.18 36.13c-.718.718-1.97.719-2.687 0L1.846 24.485a1.888 1.888 0 0 1-.557-1.344c0-.507.198-.985.557-1.343L18.85 4.816c.261.067.524.133.796.206 2.577.69 4.61 1.404 6.126 2.04a3.805 3.805 0 0 0-.465 1.807 3.805 3.805 0 0 0 3.8 3.801 3.805 3.805 0 0 0 3.802-3.8 3.805 3.805 0 0 0-3.801-3.802.633.633 0 1 0 0 1.267 2.537 2.537 0 0 1 2.534 2.534 2.537 2.537 0 0 1-2.534 2.534 2.529 2.529 0 0 1-2.18-3.823c1.098.525 1.784.968 2.055 1.25-.116.034-.295.07-.566.094a.634.634 0 0 0 .112 1.262c.39-.034 1.575-.139 1.803-.989.624-2.33-8.52-4.906-10.359-5.4-2.813-.753-5.515-1.269-7.61-1.451-2.572-.225-3.825.068-4.06.948-.113.423-.414 1.545 4.722 3.57a.633.633 0 1 0 .465-1.178c-2.482-.98-3.51-1.696-3.84-2.034.782-.23 3.453-.163 7.756.815L.95 20.901a3.146 3.146 0 0 0-.929 2.24c0 .846.33 1.641.929 2.24l11.647 11.647a3.145 3.145 0 0 0 2.239.927c.846 0 1.641-.33 2.24-.928l18.815-18.84c1.463-1.463 2.086-2.923 2.086-4.883V3.168A3.171 3.171 0 0 0 34.81 0Z" fill="#000"/><path d="M20.743 16.657a.633.633 0 0 0-.896 0l-.342.342a3.147 3.147 0 0 0-1.744-.528 3.171 3.171 0 0 0-3.168 3.168c0 .944.39 1.69.73 2.235.316.509.537 1.234.537 1.566 0 1.047-.852 1.9-1.9 1.9a1.903 1.903 0 0 1-1.57-2.972.634.634 0 0 0-1.045-.716 3.151 3.151 0 0 0-.025 3.532l-.342.342a.633.633 0 1 0 .896.896l.342-.342c.5.332 1.099.527 1.744.527a3.171 3.171 0 0 0 3.167-3.167c0-.617-.306-1.558-.729-2.236-.377-.605-.538-1.073-.538-1.565 0-1.048.853-1.901 1.9-1.901.509 0 .968.203 1.31.529.01.011.014.027.024.038.012.01.027.015.038.025a1.892 1.892 0 0 1-.03 2.654.633.633 0 1 0 .896.897c.6-.6.93-1.396.93-2.242 0-.645-.195-1.244-.527-1.745l.342-.342a.633.633 0 0 0 0-.895Z" fill="#000"/></svg>