<svg width="83" height="38" fill="none" xmlns="http://www.w3.org/2000/svg"><path d="M16.49 29.521H8.51v.652h7.98v-.651ZM16.49 30.988H8.51v.652h7.98v-.652ZM9.684 32.982h5.633c.409 0 .768-.21.979-.527h-7.59c.21.317.57.527.978.527Z" fill="#000"/><path d="M22.918 19.63h-.44v-.766a.293.293 0 0 0-.294-.293h-1.938c-.038-.58-.078-1.16-.122-1.74-.055-.57-.52-1.032-1.098-1.046H5.976c-.58.014-1.045.475-1.1 1.045-.044.58-.084 1.16-.121 1.74H2.816a.293.293 0 0 0-.293.294v.765h-.44a.09.09 0 0 0-.09.091v2.753c0 .05.04.091.09.091h.44v1c0 .162.131.294.293.294h1.68a163.86 163.86 0 0 0-.086 4.105 2.407 2.407 0 0 0-1.919 2.354v3.412a2.405 2.405 0 0 0 2.34 2.4.84.84 0 0 0 .098.01v1.555c0 .169.138.306.306.306h1.973a.306.306 0 0 0 .305-.306V36.14h9.974v1.553c0 .169.138.306.306.306h1.973a.306.306 0 0 0 .306-.306v-1.555a.844.844 0 0 0 .097-.01 2.405 2.405 0 0 0 2.34-2.4v-3.412c0-1.16-.825-2.13-1.918-2.354-.011-1.369-.04-2.737-.085-4.105h1.678a.293.293 0 0 0 .294-.294v-1h.44c.05 0 .09-.04.09-.09V19.72a.09.09 0 0 0-.09-.09Zm-16.711-.341h12.587c.126 1.704.227 3.438.301 5.162H5.905c.074-1.724.176-3.458.302-5.162ZM3.11 23.27v-.706h.44c.05 0 .09-.04.09-.09V19.72a.09.09 0 0 0-.09-.09h-.44v-.472h1.607c-.084 1.37-.151 2.741-.202 4.113H3.11Zm.817 8.515v-1.513c0-.4.324-.724.724-.724h1.512l-2.236 2.237Zm13.268-2.213v.6a.7.7 0 0 1-.131.408.7.7 0 0 1 .13.408v.652c0 .216-.097.41-.25.538a.703.703 0 0 1-.072.681c-.35.518-.93.827-1.555.827H9.684a1.875 1.875 0 0 1-1.566-.842.703.703 0 0 1-.06-.664.703.703 0 0 1-.252-.54v-.652a.7.7 0 0 1 .13-.408.7.7 0 0 1-.13-.408v-.6l-1.852-3.387a.147.147 0 0 1 .224-.181l2.255 1.948c.34-.305.783-.478 1.251-.478h5.633c.468 0 .91.174 1.25.478l2.255-1.948a.147.147 0 0 1 .225.181l-1.852 3.387Zm3.878.7v1.513l-2.236-2.237h1.512c.4 0 .724.325.724.724Zm.818-10.642h-.44a.09.09 0 0 0-.09.09v2.753c0 .05.04.091.09.091h.44v.706h-1.405c-.05-1.37-.118-2.742-.203-4.112h1.608v.471Z" fill="#000"/><path d="M15.316 28.178H9.684c-.409 0-.769.209-.979.526h7.59a1.172 1.172 0 0 0-.979-.526ZM18.462 13.807a.807.807 0 0 0-.807-.807h-2.174v.344c0 .222-.18.403-.404.403H9.923a.404.404 0 0 1-.404-.403V13H7.345a.807.807 0 0 0-.807.807v1.54h11.924v-1.54ZM74.49 29.521h-7.98v.652h7.98v-.651ZM74.49 30.988h-7.98v.652h7.98v-.652ZM67.684 32.982h5.633c.409 0 .768-.21.979-.527h-7.59c.21.317.57.527.978.527Z" fill="#000"/><path d="M80.918 19.63h-.44v-.766a.293.293 0 0 0-.294-.293h-1.938c-.038-.58-.078-1.16-.122-1.74-.055-.57-.52-1.032-1.098-1.046h-13.05c-.58.014-1.045.475-1.1 1.045-.044.58-.084 1.16-.121 1.74h-1.939a.293.293 0 0 0-.293.294v.765h-.44a.09.09 0 0 0-.09.091v2.753c0 .05.04.091.09.091h.44v1c0 .162.131.294.293.294h1.68a164.338 164.338 0 0 0-.086 4.105 2.407 2.407 0 0 0-1.919 2.354v3.412a2.405 2.405 0 0 0 2.34 2.4.84.84 0 0 0 .098.01v1.555c0 .169.138.306.306.306h1.973a.306.306 0 0 0 .305-.306V36.14h9.974v1.553c0 .169.138.306.306.306h1.972a.306.306 0 0 0 .307-.306v-1.555a.844.844 0 0 0 .097-.01 2.405 2.405 0 0 0 2.34-2.4v-3.412c0-1.16-.825-2.13-1.918-2.354-.011-1.369-.04-2.737-.085-4.105h1.678a.293.293 0 0 0 .294-.294v-1h.44c.05 0 .09-.04.09-.09V19.72a.09.09 0 0 0-.09-.09Zm-16.711-.341h12.587c.126 1.704.227 3.438.301 5.162h-13.19c.074-1.724.176-3.458.302-5.162ZM61.11 23.27v-.706h.44c.05 0 .09-.04.09-.09V19.72a.09.09 0 0 0-.09-.09h-.44v-.472h1.607c-.084 1.37-.151 2.741-.202 4.113H61.11Zm.817 8.515v-1.513c0-.4.324-.724.724-.724h1.512l-2.236 2.237Zm13.268-2.213v.6a.7.7 0 0 1-.131.408.7.7 0 0 1 .13.408v.652c0 .216-.097.41-.25.538a.703.703 0 0 1-.072.681c-.35.518-.93.827-1.555.827h-5.633a1.875 1.875 0 0 1-1.566-.842.703.703 0 0 1-.06-.664.703.703 0 0 1-.252-.54v-.652a.7.7 0 0 1 .13-.408.7.7 0 0 1-.13-.408v-.6l-1.852-3.387a.147.147 0 0 1 .224-.181l2.255 1.948c.34-.305.783-.478 1.251-.478h5.633c.468 0 .91.174 1.25.478l2.255-1.948a.147.147 0 0 1 .225.181l-1.852 3.387Zm3.879.7v1.513l-2.237-2.237h1.513c.4 0 .724.325.724.724Zm.817-10.642h-.44a.09.09 0 0 0-.09.09v2.753c0 .05.04.091.09.091h.44v.706h-1.406c-.05-1.37-.117-2.742-.201-4.112h1.607v.471Z" fill="#000"/><path d="M73.317 28.178h-5.633c-.41 0-.769.209-.979.526h7.59a1.172 1.172 0 0 0-.978-.526ZM76.462 13.807a.807.807 0 0 0-.807-.807h-2.174v.344c0 .222-.18.403-.404.403h-5.154a.404.404 0 0 1-.404-.403V13h-2.174a.807.807 0 0 0-.807.807v1.54h11.924v-1.54ZM48.065 25.111h-12.13v.99h12.13v-.99ZM48.065 27.342h-12.13v.99h12.13v-.99ZM37.718 30.372h8.562c.622 0 1.169-.318 1.488-.8H36.23c.32.482.867.8 1.489.8Z" fill="#000"/><path d="M57.835 10.078h-.67V8.915c0-.247-.2-.446-.446-.446h-2.946a254.96 254.96 0 0 0-.185-2.646c-.083-.866-.79-1.567-1.67-1.589H32.081c-.88.022-1.586.723-1.67 1.589-.067.882-.128 1.764-.185 2.646H27.28c-.246 0-.446.2-.446.446v1.163h-.67a.138.138 0 0 0-.137.138V14.4c0 .076.062.138.138.138h.669v1.52c0 .247.2.446.446.446h2.552c-.069 2.08-.113 4.16-.13 6.241a3.658 3.658 0 0 0-2.916 3.578v5.185c0 1.983 1.587 3.6 3.558 3.65.048.008.098.013.148.015v2.362c0 .257.209.466.465.466h2.998a.466.466 0 0 0 .465-.465v-2.36h15.16v2.36c0 .256.209.465.465.465h2.998a.466.466 0 0 0 .465-.465v-2.363c.05-.002.1-.007.148-.015a3.655 3.655 0 0 0 3.558-3.65v-5.185a3.658 3.658 0 0 0-2.917-3.578c-.017-2.08-.06-4.16-.13-6.24h2.552c.247 0 .447-.2.447-.447v-1.52h.669a.138.138 0 0 0 .137-.138v-4.184a.138.138 0 0 0-.137-.138ZM32.434 9.56h19.132c.192 2.59.346 5.226.458 7.846H31.975c.113-2.62.267-5.256.459-7.846Zm-4.708 6.052v-1.074h.669a.137.137 0 0 0 .137-.137v-4.185a.137.137 0 0 0-.137-.138h-.669V9.36h2.443c-.128 2.083-.23 4.167-.307 6.251h-2.136Zm1.242 12.942v-2.3a1.1 1.1 0 0 1 1.101-1.1h2.299l-3.4 3.4Zm20.167-3.364v.913c0 .23-.074.444-.199.62.125.175.2.388.2.62v.99c0 .329-.15.623-.383.82a1.07 1.07 0 0 1-.108 1.034 2.85 2.85 0 0 1-2.364 1.257h-8.562a2.85 2.85 0 0 1-2.38-1.28c-.2-.301-.23-.68-.09-1.01a1.068 1.068 0 0 1-.385-.821v-.99c0-.232.074-.445.2-.62a1.064 1.064 0 0 1-.2-.62v-.913l-2.815-5.147a.223.223 0 0 1 .342-.276l3.427 2.96a2.847 2.847 0 0 1 1.901-.725h8.562c.711 0 1.384.263 1.9.726l3.428-2.961a.223.223 0 0 1 .341.276l-2.815 5.147Zm5.896 1.065v2.299l-3.4-3.4h2.3a1.1 1.1 0 0 1 1.1 1.1Zm1.242-16.177h-.669a.137.137 0 0 0-.137.138V14.4c0 .076.061.138.137.138h.67v1.074h-2.137a253.042 253.042 0 0 0-.307-6.251h2.443v.717Z" fill="#000"/><path d="M46.28 23.07h-8.56c-.622 0-1.17.318-1.489.8H47.77c-.32-.482-.867-.8-1.488-.8ZM51.062 1.227c0-.678-.55-1.227-1.226-1.227H46.53v.522a.613.613 0 0 1-.614.613h-7.835a.613.613 0 0 1-.613-.613V0h-3.305c-.677 0-1.227.55-1.227 1.227v2.341h18.125V1.227Z" fill="#000"/></svg>