<svg width="39" height="39" fill="none" xmlns="http://www.w3.org/2000/svg"><g clip-path="url(#a)" fill="#000"><path d="M23.03.215a15.905 15.905 0 0 0-10.64 4.073 6.656 6.656 0 0 1 1.016 3.354v.007c.015.54.047 1.08.093 1.618 2.144-2.946 5.617-4.866 9.532-4.866 6.497 0 11.784 5.286 11.784 11.783 0 6.43-5.176 11.67-11.58 11.78.585.488 1.189.954 1.81 1.39l.003.003.003.002a6.668 6.668 0 0 1 2.021 2.276C33.927 29.841 39 23.595 39 16.185 39 7.378 31.837.214 23.03.214ZM22.638 32.78c-1.824-1.457-2.962-2.427-4.591-3.935-.48-.444-1.065-.72-1.667-.72-.46 0-.914.146-1.289.453l-1.158.975a35.174 35.174 0 0 1-6.84-12.757l1.453-.425c1.067-.327 1.57-1.467 1.413-2.61-.34-2.486-.526-3.722-.737-6.001-.108-1.169-.886-2.184-2-2.245a5.383 5.383 0 0 0-.52-.025c-4.146 0-7.755 4.805-6.42 10.683A41.608 41.608 0 0 0 10.684 35.57c2.107 2.212 4.688 3.214 7.02 3.214 2.459 0 4.64-1.114 5.697-3.097.566-.962.155-2.176-.763-2.908Z"/><path d="M18.228 16.48c-1.104 1.024-1.826 1.83-2.208 2.462-.27.445-.465.917-.584 1.4a.755.755 0 0 0 .14.649c.145.184.363.29.597.29h5.268c.646 0 1.17-.525 1.17-1.17 0-.646-.524-1.171-1.17-1.171h-2.379l.06-.069c.155-.175.536-.54 1.131-1.086.624-.573 1.046-1.002 1.288-1.311.366-.466.638-.92.808-1.35.174-.44.263-.907.263-1.391 0-.869-.315-1.606-.935-2.192-.616-.58-1.464-.875-2.521-.875-.96 0-1.776.251-2.425.747-.39.3-.692.714-.895 1.233-.137.351-.101.752.095 1.073a1.217 1.217 0 0 0 1.037.58 1.24 1.24 0 0 0 1.17-.835.979.979 0 0 1 .213-.37c.184-.187.431-.278.757-.278.331 0 .579.086.756.263.177.177.263.436.263.79 0 .33-.117.672-.35 1.02-.124.183-.495.609-1.55 1.59ZM28.775 10.666h-.88a.758.758 0 0 0-.626.33l-4.07 5.958a1.038 1.038 0 0 0-.181.588v.965c0 .418.34.758.758.758h3.34v.808a1.21 1.21 0 0 0 1.21 1.208 1.21 1.21 0 0 0 1.207-1.208v-.808h.121c.62 0 1.123-.503 1.123-1.122 0-.62-.504-1.123-1.123-1.123h-.12v-5.595a.76.76 0 0 0-.759-.759Zm-1.658 6.354h-1.5l1.5-2.23v2.23Z"/></g><defs><clipPath id="a"><path fill="#fff" d="M0 0h39v39H0z"/></clipPath></defs></svg>