<svg width="38" height="38" viewBox="0 0 38 38" fill="none" xmlns="http://www.w3.org/2000/svg">
<g clip-path="url(#clip0_598_372)">
<path d="M14.5739 23.4857C17.9822 26.869 21.9273 30.1011 23.4761 28.5405C25.6937 26.3066 27.0587 24.3631 31.9797 28.2876C36.9007 32.214 33.1424 34.8564 30.9946 37.021C28.5161 39.5183 19.2328 37.196 10.0311 28.0641C0.829908 18.9303 -1.56326 9.66516 0.917093 7.16667C3.06556 5.00199 5.67981 1.22504 9.64047 6.11734C13.6031 11.0072 11.67 12.3871 9.45236 14.6216C7.90429 16.1815 11.165 20.1017 14.5739 23.4857ZM19.5161 7.34479C19.5161 7.34479 18.4879 7.18416 17.768 7.90462C17.027 8.64569 16.9946 9.92231 17.7755 10.7026C18.237 11.164 18.8878 11.2624 18.8878 11.2624C20.1563 11.5003 22.0682 11.9032 24.1027 13.9371C26.1366 15.9709 26.5395 17.8827 26.7774 19.1519C26.7774 19.1519 26.8758 19.8027 27.3372 20.2642C28.1176 21.0445 29.3941 21.0128 30.1352 20.2717C30.8551 19.5519 30.695 18.5237 30.695 18.5237C30.2922 15.9542 29.0467 13.2702 26.9081 11.1317C24.769 8.99323 22.0848 7.74829 19.5161 7.34479ZM29.1605 8.87921C32.8896 12.6083 34.4794 16.8405 33.9619 20.2699C33.9619 20.2699 33.7813 21.3559 34.4906 22.0652C35.289 22.8636 36.5543 22.8175 37.3016 22.0709C37.7818 21.5907 37.8864 20.8092 37.8864 20.8092C38.3142 17.8456 37.7762 11.8834 31.966 6.07384C26.1558 0.264176 20.1943 -0.273857 17.2305 0.153365C17.2305 0.153365 16.4496 0.2574 15.9688 0.738104C15.2215 1.4854 15.1761 2.75085 15.9744 3.54916C16.6838 4.25854 17.7698 4.07785 17.7698 4.07785C21.1994 3.56033 25.4315 5.15025 29.1605 8.87921Z" fill="black"/>
</g>
<defs>
<clipPath id="clip0_598_372">
<rect width="38" height="38" fill="white"/>
</clipPath>
</defs>
</svg>
